# xmcd
# 
# Track frame offsets:
#     182
#     10192
#     21135
#     42192
#     53992
#     68580
#     81412
#     96887
#     127205
#     139935
#     151070
#     176207
#     195900
#     210022
#     228972
# 
# Disc length: 3472
# 
# Revision: 8
# Processed by: cddbd v1.5.2PL0 Copyright (c) Steve Scherf et al.
# Submitted via: fre:ac v1.0.17
# 
DISCID=bf0d8e0f
DTITLE=Various Artist - Blues Blues Blues - CD 1
DYEAR=1993
DGENRE=Blues
TTITLE0=John Lee Hooker - Dimples
TTITLE1=Howlin' Wolf - The Red Rooster
TTITLE2=Buddy Guy - Mustang Sally
TTITLE3=Johnny Winter - Shake your Money Maker
TTITLE4=Electric Flag - Wine
TTITLE5=B.B. King - Going down slow
TTITLE6=Artie Kaplan - Bensonhurst Blues
TTITLE7=Allman Brothers Band - Gambler's Roll
TTITLE8=T-Bone Walker - Stormy Monday Blues
TTITLE9=The James Cotton Band - All Walks Of Life
TTITLE10=Albert Collins - Blue Monday Hangover
TTITLE11=Clifton Chenier - Shake It Up
TTITLE12=Darell Nullish and Mark Pollack - I want to love You
TTITLE13=Paul Orta and The Kingpins - Nine below zero
TTITLE14=Lightnin' Hopkins - Mighty Crazy
EXTD=YEAR: 1993 ID3G: 0
EXTT0=
EXTT1=
EXTT2=
EXTT3=
EXTT4=
EXTT5=
EXTT6=
EXTT7=
EXTT8=
EXTT9=
EXTT10=
EXTT11=
EXTT12=
EXTT13=
EXTT14=
PLAYORDER=
